HIERARCHY
ROOT hip
{
	OFFSET 0.000000 0.000000 0.000000
	CHANNELS 6 Xposition Yposition Zposition Xrotation Zrotation Yrotation 
	JOINT abdomen
	{
		OFFSET 0.000000 3.422050 0.000000
		CHANNELS 3 Xrotation Zrotation Yrotation 
		JOINT chest
		{
			OFFSET 0.000000 8.486693 -0.684411
			CHANNELS 3 Xrotation Zrotation Yrotation 
			JOINT neck
			{
				OFFSET 0.000000 10.266162 -0.273764
				CHANNELS 3 Xrotation Zrotation Yrotation 
				JOINT head
				{
					OFFSET 0.000000 3.148285 0.000000
					CHANNELS 3 Xrotation Zrotation Yrotation 
					End Site
					{
						OFFSET 0.000000 3.148289 0.000000
					}
				}
			}
			JOINT lCollar
			{
				OFFSET 3.422053 6.707223 -0.821293
				CHANNELS 3 Yrotation Zrotation Xrotation 
				JOINT lShldr
				{
					OFFSET 3.285171 0.000000 0.000000
					CHANNELS 3 Zrotation Yrotation Xrotation 
					JOINT lForeArm
					{
						OFFSET 10.129278 0.000000 0.000000
						CHANNELS 3 Yrotation Zrotation Xrotation 
						JOINT lHand
						{
							OFFSET 8.486692 0.000000 0.000000
							CHANNELS 3 Zrotation Yrotation Xrotation 
							End Site
							{
								OFFSET 4.106464 0.000000 0.000000
							}
						}
					}
				}
			}
			JOINT rCollar
			{
				OFFSET -3.558935 6.707223 -0.821293
				CHANNELS 3 Yrotation Zrotation Xrotation 
				JOINT rShldr
				{
					OFFSET -3.148289 0.000000 0.000000
					CHANNELS 3 Zrotation Yrotation Xrotation 
					JOINT rForeArm
					{
						OFFSET -10.266159 0.000000 0.000000
						CHANNELS 3 Yrotation Zrotation Xrotation 
						JOINT rHand
						{
							OFFSET -8.349810 0.000000 0.000000
							CHANNELS 3 Zrotation Yrotation Xrotation 
							End Site
							{
								OFFSET -4.106464 0.000000 0.000000
							}
						}
					}
				}
			}
		}
	}
	JOINT lThigh
	{
		OFFSET 5.338403 -1.642589 1.368821
		CHANNELS 3 Xrotation Zrotation Yrotation 
		JOINT lShin
		{
			OFFSET -2.053232 -20.121670 0.000000
			CHANNELS 3 Xrotation Zrotation Yrotation 
			JOINT lFoot
			{
				OFFSET 0.000000 -19.300380 -1.231939
				CHANNELS 3 Xrotation Yrotation Zrotation 
				End Site
				{
					OFFSET 0.000000 -2.463878 4.653993
				}
			}
		}
	}
	JOINT rThigh
	{
		OFFSET -5.338403 -1.642589 1.368821
		CHANNELS 3 Xrotation Zrotation Yrotation 
		JOINT rShin
		{
			OFFSET 2.053232 -20.121670 0.000000
			CHANNELS 3 Xrotation Zrotation Yrotation 
			JOINT rFoot
			{
				OFFSET 0.000000 -19.300380 -1.231939
				CHANNELS 3 Xrotation Yrotation Zrotation 
				End Site
				{
					OFFSET 0.000000 -2.463878 4.653993
				}
			}
		}
	}
}
MOTION
Frames: 20
Frame Time: 0.033264
0.000000 43.528500 0.000000 0.000000 0.000000 0.000000 0.000000 0.000000 0.000000 0.000000 0.000000 0.000000 0.000000 0.000000 0.000000 0.000000 0.000000 0.000000 0.000000 0.000000 0.000000 0.000000 0.000000 0.000000 0.000000 0.000000 0.000000 0.000000 0.000000 0.000000 0.000000 0.000000 0.000000 0.000000 0.000000 0.000000 0.000000 0.000000 0.000000 0.000000 0.000000 0.000000 0.000000 0.000000 0.000000 0.000000 0.000000 0.000000 0.000000 0.000000 0.000000 0.000000 0.000000 0.000000 0.000000 0.000000 0.000000 0.000000 0.000000 0.000000 
-2.808491 14.815765 10.528112 0.000000 0.000000 0.000000 22.574459 -0.045278 -0.032216 17.453356 0.022558 -0.504248 -17.867357 0.097989 0.004066 -19.148586 1.231035 -0.092387 3.075090 -2.371396 0.089901 -41.001667 -43.002678 -21.999195 -73.004074 5.001093 0.996686 -44.002182 0.000000 0.000000 -0.002182 7.999156 -0.194408 66.997673 32.000294 24.996780 68.999077 0.000000 0.000000 6.996825 0.000000 0.000000 -115.002632 26.996822 -9.998302 115.994263 5.002093 9.996074 -5.117766 -1.375257 5.323081 -25.861143 -57.828201 -34.284698 156.894318 -8.168169 -41.343388 29.409460 54.220406 4.195415 
-2.808491 14.815765 10.528112 0.000000 0.000000 0.000000 22.574459 -0.045278 -0.032216 17.453356 0.022558 -0.504248 -17.791758 0.442803 0.269372 -19.148586 1.231035 -0.092387 3.075090 -2.371396 0.089901 -41.001667 -43.002678 -21.999195 -73.004074 5.001093 0.996686 -44.002186 0.000000 0.000000 -0.002182 7.999157 -0.194408 66.997673 32.000294 24.996780 69.190163 0.000000 0.000000 7.263427 0.000000 0.000000 -115.002632 26.996822 -9.998302 115.994278 5.002094 9.996075 -5.117766 -1.375257 5.323081 -25.861145 -57.828209 -34.284698 156.894318 -8.168170 -41.343388 29.409460 54.220406 4.195415 
-2.808491 14.815765 10.528112 0.000000 0.000000 0.000000 22.574459 -0.045278 -0.032216 17.453358 0.022558 -0.504248 -17.714455 0.787688 0.535478 -19.148588 1.231035 -0.092387 3.075090 -2.371396 0.089901 -41.001667 -43.002678 -21.999195 -73.004082 5.001094 0.996686 -44.002182 0.000000 0.000000 -0.002182 7.999156 -0.194408 66.997681 32.000294 24.996782 69.381355 0.000000 0.000000 7.530236 0.000000 0.000000 -115.002640 26.996824 -9.998302 115.994263 5.002093 9.996074 -5.117766 -1.375257 5.323081 -25.861155 -57.828209 -34.284698 156.894318 -8.168169 -41.343388 29.409460 54.220406 4.195415 
-2.808491 14.815765 10.528112 0.000000 0.000000 0.000000 22.574461 -0.045278 -0.032216 17.453358 0.022558 -0.504248 -17.635448 1.132625 0.802398 -19.148586 1.231035 -0.092387 3.075090 -2.371396 0.089901 -41.001675 -43.002686 -21.999199 -73.004074 5.001094 0.996686 -44.002186 0.000000 0.000000 -0.002182 7.999157 -0.194408 66.997681 32.000294 24.996782 69.572617 0.000000 0.000000 7.797248 0.000000 0.000000 -115.002640 26.996824 -9.998305 115.994278 5.002094 9.996075 -5.117767 -1.375257 5.323081 -25.861145 -57.828209 -34.284698 156.894318 -8.168170 -41.343388 29.409460 54.220409 4.195420 
-2.808491 14.815765 10.528112 0.000000 0.000000 0.000000 22.574457 -0.045277 -0.032216 17.453356 0.022558 -0.504248 -17.554726 1.477595 1.070145 -19.148584 1.231035 -0.092387 3.075090 -2.371396 0.089901 -41.001667 -43.002678 -21.999195 -73.004074 5.001093 0.996686 -44.002178 0.000000 0.000000 -0.002182 7.999156 -0.194408 66.997665 32.000290 24.996778 69.763916 0.000000 0.000000 8.064460 0.000000 0.000000 -115.002640 26.996817 -9.998302 115.994263 5.002092 9.996073 -5.117765 -1.375257 5.323081 -25.861143 -57.828194 -34.284695 156.894318 -8.168169 -41.343388 29.409460 54.220406 4.195415 
-2.808491 14.815765 10.528112 0.000000 0.000000 0.000000 22.574457 -0.045277 -0.032216 17.453356 0.022558 -0.504248 -17.472284 1.822580 1.338732 -19.148586 1.231035 -0.092387 3.075090 -2.371396 0.089901 -41.001667 -43.002678 -21.999195 -73.004074 5.001093 0.996686 -44.002178 0.000000 0.000000 -0.002182 7.999156 -0.194408 66.997673 32.000294 24.996780 69.955322 0.000000 0.000000 8.331864 0.000000 0.000000 -115.002632 26.996822 -9.998302 115.994263 5.002093 9.996074 -5.117766 -1.375257 5.323081 -25.861139 -57.828201 -34.284698 156.894318 -8.168169 -41.343388 29.409460 54.220406 4.195415 
-2.808491 14.815765 10.528112 0.000000 0.000000 0.000000 22.574459 -0.045278 -0.032216 17.453356 0.022558 -0.504248 -17.388115 2.167558 1.608174 -19.148586 1.231035 -0.092387 3.075090 -2.371396 0.089901 -41.001667 -43.002678 -21.999195 -73.004074 5.001093 0.996686 -44.002182 0.000000 0.000000 -0.002182 7.999156 -0.194408 66.997673 32.000294 24.996780 70.146797 0.000000 0.000000 8.599465 0.000000 0.000000 -115.002632 26.996822 -9.998302 115.994263 5.002093 9.996074 -5.117766 -1.375257 5.323081 -25.861143 -57.828201 -34.284698 156.894318 -8.168169 -41.343388 29.409460 54.220406 4.195415 
-2.808491 14.815765 10.528112 0.000000 0.000000 0.000000 22.574459 -0.045278 -0.032216 17.453356 0.022558 -0.504248 -17.302208 2.512512 1.878483 -19.148586 1.231035 -0.092387 3.075090 -2.371396 0.089901 -41.001671 -43.002686 -21.999195 -73.004074 5.001093 0.996686 -44.002186 0.000000 0.000000 -0.002182 7.999156 -0.194408 66.997673 32.000294 24.996780 70.338310 0.000000 0.000000 8.867257 0.000000 0.000000 -115.002632 26.996824 -9.998301 115.994263 5.002093 9.996074 -5.117766 -1.375257 5.323081 -25.861149 -57.828209 -34.284702 156.894318 -8.168170 -41.343388 29.409460 54.220406 4.195415 
-2.808491 14.815765 10.528112 0.000000 0.000000 0.000000 22.574459 -0.045278 -0.032216 17.453356 0.022558 -0.504248 -17.214548 2.857420 2.149672 -19.148586 1.231035 -0.092387 3.075090 -2.371396 0.089901 -41.001667 -43.002678 -21.999195 -73.004082 5.001094 0.996687 -44.002186 0.000000 0.000000 -0.002182 7.999157 -0.194408 66.997681 32.000294 24.996782 70.529938 0.000000 0.000000 9.135240 0.000000 0.000000 -115.002632 26.996822 -9.998302 115.994263 5.002094 9.996074 -5.117766 -1.375257 5.323081 -25.861143 -57.828201 -34.284698 156.894318 -8.168169 -41.343388 29.409460 54.220409 4.195420 
-2.808491 14.815765 10.528112 0.000000 0.000000 0.000000 22.574459 -0.045278 -0.032216 17.453358 0.022558 -0.504248 -17.125139 3.202266 2.421757 -19.148586 1.231035 -0.092387 3.075090 -2.371396 0.089901 -41.001667 -43.002678 -21.999195 -73.004074 5.001094 0.996686 -44.002190 0.000000 0.000000 -0.002182 7.999156 -0.194408 66.997681 32.000294 24.996782 70.721596 0.000000 0.000000 9.403407 0.000000 0.000000 -115.002640 26.996822 -9.998304 115.994263 5.002093 9.996074 -5.117766 -1.375257 5.323082 -25.861151 -57.828209 -34.284695 156.894318 -8.168170 -41.343391 29.409464 54.220417 4.195416 
-2.808491 14.815765 10.528112 0.000000 0.000000 0.000000 22.574459 -0.045277 -0.032216 17.453356 0.022558 -0.504248 -17.033966 3.547026 2.694750 -19.148584 1.231035 -0.092387 3.075090 -2.371396 0.089901 -41.001663 -43.002674 -21.999187 -73.004074 5.001093 0.996686 -44.002178 0.000000 0.000000 -0.002182 7.999156 -0.194408 66.997665 32.000290 24.996777 70.913330 0.000000 0.000000 9.671757 0.000000 0.000000 -115.002632 26.996819 -9.998300 115.994263 5.002093 9.996074 -5.117766 -1.375257 5.323081 -25.861143 -57.828201 -34.284698 156.894318 -8.168168 -41.343384 29.409456 54.220398 4.195418 
-2.808491 14.815765 10.528112 0.000000 0.000000 0.000000 22.574459 -0.045278 -0.032216 17.453356 0.022558 -0.504248 -16.941021 3.891682 2.968665 -19.148584 1.231035 -0.092387 3.075090 -2.371396 0.089901 -41.001667 -43.002678 -21.999189 -73.004074 5.001093 0.996686 -44.002182 0.000000 0.000000 -0.002182 7.999156 -0.194408 66.997673 32.000294 24.996780 71.105141 0.000000 0.000000 9.940289 0.000000 0.000000 -115.002632 26.996822 -9.998302 115.994263 5.002093 9.996074 -5.117766 -1.375257 5.323081 -25.861143 -57.828201 -34.284698 156.894318 -8.168169 -41.343380 29.409460 54.220406 4.195415 
-2.808491 14.815765 10.528112 0.000000 0.000000 0.000000 22.574457 -0.045277 -0.032216 17.453356 0.022558 -0.504248 -16.846296 4.236213 3.243515 -19.148586 1.231035 -0.092387 3.075090 -2.371396 0.089901 -41.001667 -43.002678 -21.999195 -73.004074 5.001093 0.996686 -44.002182 0.000000 0.000000 -0.002182 7.999156 -0.194408 66.997673 32.000294 24.996780 71.296989 0.000000 0.000000 10.208998 0.000000 0.000000 -115.002632 26.996822 -9.998302 115.994263 5.002093 9.996074 -5.117766 -1.375257 5.323081 -25.861141 -57.828194 -34.284695 156.894318 -8.168169 -41.343388 29.409460 54.220406 4.195415 
-2.808491 14.815765 10.528112 0.000000 0.000000 0.000000 22.574459 -0.045278 -0.032216 17.453356 0.022558 -0.504248 -16.749781 4.580600 3.519315 -19.148586 1.231035 -0.092387 3.075090 -2.371396 0.089901 -41.001667 -43.002678 -21.999195 -73.004074 5.001093 0.996686 -44.002182 0.000000 0.000000 -0.002182 7.999156 -0.194408 66.997673 32.000294 24.996780 71.488937 0.000000 0.000000 10.477880 0.000000 0.000000 -115.002632 26.996822 -9.998302 115.994263 5.002093 9.996074 -5.117766 -1.375257 5.323081 -25.861143 -57.828201 -34.284698 156.894318 -8.168169 -41.343388 29.409464 54.220409 4.195417 
-2.808491 14.815765 10.528112 0.000000 0.000000 0.000000 22.574459 -0.045278 -0.032216 17.453358 0.022558 -0.504248 -16.651464 4.924820 3.796078 -19.148588 1.231035 -0.092387 3.075090 -2.371396 0.089901 -41.001667 -43.002678 -21.999195 -73.004074 5.001093 0.996686 -44.002182 0.000000 0.000000 -0.002182 7.999157 -0.194408 66.997673 32.000294 24.996780 71.680923 0.000000 0.000000 10.746937 0.000000 0.000000 -115.002632 26.996822 -9.998302 115.994278 5.002093 9.996074 -5.117766 -1.375257 5.323081 -25.861143 -57.828201 -34.284698 156.894318 -8.168169 -41.343391 29.409460 54.220406 4.195415 
-2.808491 14.815765 10.528112 0.000000 0.000000 0.000000 22.574461 -0.045278 -0.032216 17.453358 0.022558 -0.504248 -16.551346 5.268856 4.073819 -19.148588 1.231035 -0.092387 3.075090 -2.371396 0.089901 -41.001671 -43.002682 -21.999193 -73.004074 5.001094 0.996686 -44.002182 0.000000 0.000000 -0.002182 7.999156 -0.194408 66.997681 32.000298 24.996782 71.872963 0.000000 0.000000 11.016159 0.000000 0.000000 -115.002640 26.996824 -9.998305 115.994263 5.002093 9.996074 -5.117766 -1.375257 5.323081 -25.861149 -57.828209 -34.284702 156.894318 -8.168170 -41.343388 29.409460 54.220406 4.195415 
-2.808491 14.815765 10.528112 0.000000 0.000000 0.000000 22.574459 -0.045277 -0.032216 17.453356 0.022558 -0.504248 -16.449409 5.612685 4.352551 -19.148586 1.231035 -0.092387 3.075090 -2.371396 0.089901 -41.001663 -43.002674 -21.999195 -73.004074 5.001093 0.996686 -44.002174 0.000000 0.000000 -0.002182 7.999156 -0.194408 66.997673 32.000294 24.996778 72.065079 0.000000 0.000000 11.285550 0.000000 0.000000 -115.002632 26.996820 -9.998303 115.994263 5.002093 9.996074 -5.117766 -1.375257 5.323081 -25.861147 -57.828201 -34.284691 156.894318 -8.168169 -41.343388 29.409456 54.220406 4.195417 
-2.808491 14.815765 10.528112 0.000000 0.000000 0.000000 22.574459 -0.045278 -0.032216 17.453354 0.022558 -0.504248 -16.345648 5.956284 4.632286 -19.148586 1.231035 -0.092387 3.075090 -2.371396 0.089901 -41.001667 -43.002678 -21.999195 -73.004074 5.001093 0.996686 -44.002178 0.000000 0.000000 -0.002182 7.999156 -0.194408 66.997673 32.000294 24.996780 72.257240 0.000000 0.000000 11.555107 0.000000 0.000000 -115.002632 26.996820 -9.998301 115.994247 5.002093 9.996074 -5.117766 -1.375257 5.323081 -25.861141 -57.828194 -34.284695 156.894318 -8.168169 -41.343388 29.409456 54.220398 4.195413 
-2.808491 14.815765 10.528112 0.000000 0.000000 0.000000 22.574457 -0.045278 -0.032216 17.453356 0.022558 -0.504248 -16.240051 6.299636 4.913041 -19.148586 1.231035 -0.092387 3.075090 -2.371396 0.089901 -41.001659 -43.002678 -21.999195 -73.004074 5.001093 0.996686 -44.002182 0.000000 0.000000 -0.002182 7.999156 -0.194408 66.997673 32.000294 24.996780 72.449486 0.000000 0.000000 11.824820 0.000000 0.000000 -115.002632 26.996819 -9.998302 115.994263 5.002093 9.996074 -5.117766 -1.375257 5.323081 -25.861143 -57.828201 -34.284698 156.894318 -8.168169 -41.343388 29.409460 54.220406 4.195415 
